<?xml version="1.0" encoding="UTF-8" standalone="no"?>
<!-- Created with Inkscape (http://www.inkscape.org/) -->

<svg
   xmlns:dc="http://purl.org/dc/elements/1.1/"
   xmlns:cc="http://creativecommons.org/ns#"
   xmlns:rdf="http://www.w3.org/1999/02/22-rdf-syntax-ns#"
   xmlns:svg="http://www.w3.org/2000/svg"
   xmlns="http://www.w3.org/2000/svg"
   xmlns:sodipodi="http://sodipodi.sourceforge.net/DTD/sodipodi-0.dtd"
   xmlns:inkscape="http://www.inkscape.org/namespaces/inkscape"
   width="420mm"
   height="297mm"
   viewBox="0 0 420 297"
   version="1.1"
   id="svg8"
   inkscape:version="0.92.2 (5c3e80d, 2017-08-06)"
   sodipodi:docname="TestDashboard.svg">
  <defs
     id="defs2">
    <pattern
       y="0"
       x="0"
       height="6"
       width="6"
       patternUnits="userSpaceOnUse"
       id="EMFhbasepattern" />
    <filter
       inkscape:collect="always"
       style="color-interpolation-filters:sRGB"
       id="filter4698"
       x="-0.045151049"
       width="1.0903021"
       y="-0.094950002"
       height="1.1899">
      <feGaussianBlur
         inkscape:collect="always"
         stdDeviation="0.71902186"
         id="feGaussianBlur4700" />
    </filter>
    <filter
       inkscape:collect="always"
       style="color-interpolation-filters:sRGB"
       id="filter4698-7"
       x="-0.045151047"
       width="1.0903021"
       y="-0.094950005"
       height="1.1899">
      <feGaussianBlur
         inkscape:collect="always"
         stdDeviation="0.71902186"
         id="feGaussianBlur4700-4" />
    </filter>
    <pattern
       y="0"
       x="0"
       height="6"
       width="6"
       patternUnits="userSpaceOnUse"
       id="EMFhbasepattern-5" />
    <pattern
       y="0"
       x="0"
       height="6"
       width="6"
       patternUnits="userSpaceOnUse"
       id="EMFhbasepattern-1" />
    <filter
       inkscape:collect="always"
       style="color-interpolation-filters:sRGB"
       id="filter4698-4"
       x="-0.045151047"
       width="1.0903021"
       y="-0.094950005"
       height="1.1899">
      <feGaussianBlur
         inkscape:collect="always"
         stdDeviation="0.71902186"
         id="feGaussianBlur4700-3" />
    </filter>
    <filter
       inkscape:collect="always"
       style="color-interpolation-filters:sRGB"
       id="filter4698-4-1"
       x="-0.045151047"
       width="1.0903021"
       y="-0.094950005"
       height="1.1899">
      <feGaussianBlur
         inkscape:collect="always"
         stdDeviation="0.71902186"
         id="feGaussianBlur4700-3-4" />
    </filter>
  </defs>
  <sodipodi:namedview
     id="base"
     pagecolor="#ffffff"
     bordercolor="#666666"
     borderopacity="1.0"
     inkscape:pageopacity="0.0"
     inkscape:pageshadow="2"
     inkscape:zoom="0.98994949"
     inkscape:cx="488.64889"
     inkscape:cy="739.19409"
     inkscape:document-units="mm"
     inkscape:current-layer="layer1"
     showgrid="false"
     objecttolerance="1"
     inkscape:window-width="1920"
     inkscape:window-height="1018"
     inkscape:window-x="-8"
     inkscape:window-y="-8"
     inkscape:window-maximized="1" />
  <metadata
     id="metadata5">
    <rdf:RDF>
      <cc:Work
         rdf:about="">
        <dc:format>image/svg+xml</dc:format>
        <dc:type
           rdf:resource="http://purl.org/dc/dcmitype/StillImage" />
        <dc:title></dc:title>
      </cc:Work>
    </rdf:RDF>
  </metadata>
  <g
     inkscape:label="Ebene 1"
     inkscape:groupmode="layer"
     id="layer1">
    <path
       id="path3702"
       d="M 0.86478715,0.64844868 V 19.141406 H 418.61956 V 0.64844868 Z"
       style="fill:#ffffff;fill-opacity:1;fill-rule:evenodd;stroke:none;stroke-width:0.25932741"
       inkscape:connector-curvature="0" />
    <path
       id="path3704"
       d="M 0.86478715,19.141406 H 418.61956 V 0.64844868 H 0.86478715 Z"
       style="fill:none;stroke:#bfbfbf;stroke-width:0.32405719px;stroke-linecap:round;stroke-linejoin:round;stroke-miterlimit:4;stroke-dasharray:none;stroke-opacity:1"
       inkscape:connector-curvature="0" />
    <text
       id="text3712"
       y="10.17045"
       x="2.628119"
       style="font-style:normal;font-variant:normal;font-weight:700;font-size:8.46666622px;line-height:125%;font-family:'TeleGrotesk Headline';text-align:start;letter-spacing:0px;word-spacing:0px;text-anchor:start;fill:#000000;fill-opacity:1;stroke:none;stroke-width:0.26458332"
       xml:space="preserve"><tspan
         id="tspan3710"
         y="10.17045"
         x="2.628119"
         sodipodi:role="line"
         style="stroke-width:0.26458332"><tspan
           id="tspan3706"
           style="font-style:normal;font-variant:normal;font-weight:700;font-size:8.46666622px;font-family:'TeleGrotesk Headline';fill:#404040;stroke-width:0.26458332"
           dy="0"
           dx="0">TS ASSURANCE</tspan><tspan
           id="tspan3708"
           style="font-style:normal;font-variant:normal;font-weight:700;font-size:8.46666622px;font-family:'TeleGrotesk Headline';fill:#404040;stroke-width:0.26458332"
           dy="0"
           dx="0.042144421"> Dashboard</tspan></tspan></text>
    <text
       id="text3718"
       y="10.17045"
       x="363.93738"
       style="font-style:normal;font-variant:normal;font-weight:400;font-size:4.58059883px;line-height:125%;font-family:Tele-GroteskNCNor;text-align:start;letter-spacing:0px;word-spacing:0px;text-anchor:start;fill:#000000;fill-opacity:1;stroke:none;stroke-width:0.26458332"
       xml:space="preserve"><tspan
         id="tspan3716"
         y="10.17045"
         x="363.93738"
         sodipodi:role="line"
         style="stroke-width:0.26458332"><tspan
           id="tspan3714"
           style="font-style:normal;font-variant:normal;font-weight:400;font-size:4.58059883px;font-family:Tele-GroteskNCNor;fill:#404040;stroke-width:0.26458332"
           dy="0"
           dx="0">Release</tspan></tspan></text>
    <text
       id="text3732"
       y="10.17045"
       x="377.69138"
       style="font-style:normal;font-variant:normal;font-weight:400;font-size:4.58059883px;line-height:125%;font-family:Tele-GroteskNCNor;text-align:start;letter-spacing:0px;word-spacing:0px;text-anchor:start;fill:#000000;fill-opacity:1;stroke:none;stroke-width:0.26458332"
       xml:space="preserve"><tspan
         id="tspan3730"
         y="10.17045"
         x="377.69138"
         sodipodi:role="line"
         style="stroke-width:0.26458332"><tspan
           id="tspan3720"
           style="font-style:normal;font-variant:normal;font-weight:400;font-size:4.58059883px;font-family:Tele-GroteskNCNor;fill:#404040;stroke-width:0.26458332"
           dy="0"
           dx="0">: </tspan><tspan
           id="tspan3722"
           style="font-style:normal;font-variant:normal;font-weight:400;font-size:4.58059883px;font-family:Tele-GroteskNCNor;fill:#404040;stroke-width:0.26458332"
           dy="0"
           dx="0">V</tspan><tspan
           id="tspan3724"
           style="font-style:normal;font-variant:normal;font-weight:400;font-size:4.58059883px;font-family:Tele-GroteskNCNor;fill:#404040;stroke-width:0.26458332"
           dy="0"
           dx="0">4 </tspan><tspan
           id="tspan3726"
           style="font-style:normal;font-variant:normal;font-weight:400;font-size:4.58059883px;font-family:Tele-GroteskNCNor;fill:#404040;stroke-width:0.26458332"
           dy="0"
           dx="0">/ </tspan><tspan
           id="tspan3728"
           style="font-style:normal;font-variant:normal;font-weight:400;font-size:4.58059883px;font-family:Tele-GroteskNCNor;fill:#404040;stroke-width:0.26458332"
           dy="0"
           dx="0">August </tspan></tspan></text>
    <text
       id="text3738"
       y="10.17045"
       x="400.26208"
       style="font-style:normal;font-variant:normal;font-weight:400;font-size:4.58059883px;line-height:125%;font-family:Tele-GroteskNCNor;text-align:start;letter-spacing:0px;word-spacing:0px;text-anchor:start;fill:#000000;fill-opacity:1;stroke:none;stroke-width:0.26458332"
       xml:space="preserve"><tspan
         id="tspan3736"
         y="10.17045"
         x="400.26208"
         sodipodi:role="line"
         style="stroke-width:0.26458332"><tspan
           id="tspan3734"
           style="font-style:normal;font-variant:normal;font-weight:400;font-size:4.58059883px;font-family:Tele-GroteskNCNor;fill:#404040;stroke-width:0.26458332"
           dy="0"
           dx="0">2017</tspan></tspan></text>
    <text
       id="text3752"
       y="16.871115"
       x="2.628119"
       style="font-style:normal;font-variant:normal;font-weight:400;font-size:4.58059883px;line-height:125%;font-family:Tele-GroteskNCNor;text-align:start;letter-spacing:0px;word-spacing:0px;text-anchor:start;fill:#000000;fill-opacity:1;stroke:none;stroke-width:0.26458332"
       xml:space="preserve"><tspan
         id="tspan3750"
         y="16.871115"
         x="2.628119"
         sodipodi:role="line"
         style="stroke-width:0.26458332"><tspan
           id="tspan3740"
           style="font-style:normal;font-variant:normal;font-weight:400;font-size:4.58059883px;font-family:Tele-GroteskNCNor;fill:#404040;stroke-width:0.26458332"
           dy="0"
           dx="0">Ende</tspan><tspan
           id="tspan3742"
           style="font-style:normal;font-variant:normal;font-weight:400;font-size:4.58059883px;font-family:Tele-GroteskNCNor;fill:#404040;stroke-width:0.26458332"
           dy="0"
           dx="0">-</tspan><tspan
           id="tspan3744"
           style="font-style:normal;font-variant:normal;font-weight:400;font-size:4.58059883px;font-family:Tele-GroteskNCNor;fill:#404040;stroke-width:0.26458332"
           dy="0"
           dx="0">zu</tspan><tspan
           id="tspan3746"
           style="font-style:normal;font-variant:normal;font-weight:400;font-size:4.58059883px;font-family:Tele-GroteskNCNor;fill:#404040;stroke-width:0.26458332"
           dy="0"
           dx="0">-</tspan><tspan
           id="tspan3748"
           style="font-style:normal;font-variant:normal;font-weight:400;font-size:4.58059883px;font-family:Tele-GroteskNCNor;fill:#404040;stroke-width:0.26458332"
           dy="0"
           dx="0">Ende Betrachtung des Entstörprozesses Massenmarkt Retail der Telekom </tspan></tspan></text>
    <text
       id="text3758"
       y="16.871115"
       x="363.58472"
       style="font-style:normal;font-variant:normal;font-weight:400;font-size:4.58059883px;line-height:125%;font-family:Tele-GroteskNCNor;text-align:start;letter-spacing:0px;word-spacing:0px;text-anchor:start;fill:#000000;fill-opacity:1;stroke:none;stroke-width:0.26458332"
       xml:space="preserve"><tspan
         id="tspan3756"
         y="16.871115"
         x="363.58472"
         sodipodi:role="line"
         style="stroke-width:0.26458332"><tspan
           id="tspan3754"
           style="font-style:normal;font-variant:normal;font-weight:400;font-size:4.58059883px;font-family:Tele-GroteskNCNor;fill:#404040;stroke-width:0.26458332"
           dy="0"
           dx="0">Ansprechpartner</tspan></tspan></text>
    <text
       id="text3766"
       y="16.871115"
       x="392.15073"
       style="font-style:normal;font-variant:normal;font-weight:400;font-size:4.58059883px;line-height:125%;font-family:Tele-GroteskNCNor;text-align:start;letter-spacing:0px;word-spacing:0px;text-anchor:start;fill:#000000;fill-opacity:1;stroke:none;stroke-width:0.26458332"
       xml:space="preserve"><tspan
         id="tspan3764"
         y="16.871115"
         x="392.15073"
         sodipodi:role="line"
         style="stroke-width:0.26458332"><tspan
           id="tspan3760"
           style="font-style:normal;font-variant:normal;font-weight:400;font-size:4.58059883px;font-family:Tele-GroteskNCNor;fill:#404040;stroke-width:0.26458332"
           dy="0"
           dx="0">: </tspan><tspan
           id="tspan3762"
           style="font-style:normal;font-variant:normal;font-weight:400;font-size:4.58059883px;font-family:Tele-GroteskNCNor;fill:#404040;stroke-width:0.26458332"
           dy="0"
           dx="0">CSO Leitstand </tspan></tspan></text>
    <rect
       y="35.610394"
       x="107.44234"
       height="18.174328"
       width="38.219543"
       id="rect4628"
       style="opacity:1;vector-effect:none;fill:#808080;fill-opacity:1;stroke-width:0.36815214;stroke-linecap:butt;stroke-linejoin:miter;stroke-miterlimit:4;stroke-dasharray:none;stroke-dashoffset:0;stroke-opacity:1;filter:url(#filter4698)" />
    <rect
       style="opacity:1;vector-effect:none;fill:#e6e6e6;fill-opacity:1;stroke-width:0.36815214;stroke-linecap:butt;stroke-linejoin:miter;stroke-miterlimit:4;stroke-dasharray:none;stroke-dashoffset:0;stroke-opacity:1"
       id="rect3808"
       width="38.219543"
       height="18.174328"
       x="105.83874"
       y="34.006779" />
    <rect
       y="36.412216"
       x="15.635264"
       height="18.174328"
       width="38.219543"
       id="rect4628-6"
       style="opacity:1;vector-effect:none;fill:#808080;fill-opacity:1;stroke-width:0.36815214;stroke-linecap:butt;stroke-linejoin:miter;stroke-miterlimit:4;stroke-dasharray:none;stroke-dashoffset:0;stroke-opacity:1;filter:url(#filter4698-7)" />
    <rect
       style="opacity:1;vector-effect:none;fill:#e6e6e6;fill-opacity:1;stroke-width:0.36815217;stroke-linecap:butt;stroke-linejoin:miter;stroke-miterlimit:4;stroke-dasharray:none;stroke-dashoffset:0;stroke-opacity:1"
       id="rect3808-7"
       width="38.219543"
       height="18.174328"
       x="13.497111"
       y="34.006783" />
    <path
       d="m 51.397644,41.297781 h 23.67275 v 3.614833 H 51.397644 L 47.76077,43.105197 Z"
       style="fill:#a6a6a6;fill-opacity:1;fill-rule:evenodd;stroke:none;stroke-width:0.26458332"
       inkscape:connector-curvature="0" />
    <path
       id="path4797"
       d="M 106.68176,44.905668 H 85.9626 v -3.614832 h 20.71916 l 3.17401,1.807415 z"
       style="fill:#a6a6a6;fill-opacity:1;fill-rule:evenodd;stroke:none;stroke-width:0.26458332"
       inkscape:connector-curvature="0" />
    <path
       id="path4801"
       d="M 68.188152,44.900648 H 86.405936 V 41.291786 H 68.188152 Z"
       style="fill:#a6a6a6;fill-opacity:1;fill-rule:evenodd;stroke:none;stroke-width:0.28537405"
       inkscape:connector-curvature="0" />
    <path
       style="fill:#666666;fill-opacity:1;fill-rule:evenodd;stroke:#f6f6f6;stroke-width:1.75748033;stroke-opacity:0.79906541;stroke-miterlimit:4;stroke-dasharray:none"
       d="M 291.69531 156.02344 L 277.94922 162.85547 L 291.69531 169.68555 L 299.7793 169.68555 L 299.81641 169.68555 L 304.98828 169.68555 L 318.73438 162.85547 L 304.98828 156.02344 L 299.83984 156.02344 L 299.80273 156.02344 L 291.69531 156.02344 z "
       transform="scale(0.26458333)"
       id="hotspot1">
       <title>titletest</title>
       <desc>test</desc>
     </path>
    <rect
       y="75.16629"
       x="143.65736"
       height="18.174328"
       width="38.219543"
       id="rect4628-9"
       style="opacity:1;vector-effect:none;fill:#808080;fill-opacity:1;stroke-width:0.36815214;stroke-linecap:butt;stroke-linejoin:miter;stroke-miterlimit:4;stroke-dasharray:none;stroke-dashoffset:0;stroke-opacity:1;filter:url(#filter4698-4)" />
    <rect
       style="opacity:1;vector-effect:none;fill:#e6e6e6;fill-opacity:1;stroke-width:0.36815217;stroke-linecap:butt;stroke-linejoin:miter;stroke-miterlimit:4;stroke-dasharray:none;stroke-dashoffset:0;stroke-opacity:1"
       id="rect3808-9"
       width="38.219543"
       height="18.174328"
       x="142.05377"
       y="73.562683" />
    <rect
       y="133.43105"
       x="144.19191"
       height="18.174328"
       width="38.219543"
       id="rect4628-9-0"
       style="opacity:1;vector-effect:none;fill:#808080;fill-opacity:1;stroke-width:0.36815214;stroke-linecap:butt;stroke-linejoin:miter;stroke-miterlimit:4;stroke-dasharray:none;stroke-dashoffset:0;stroke-opacity:1;filter:url(#filter4698-4-1)" />
    <rect
       style="opacity:1;vector-effect:none;fill:#e6e6e6;fill-opacity:1;stroke-width:0.3681522;stroke-linecap:butt;stroke-linejoin:miter;stroke-miterlimit:4;stroke-dasharray:none;stroke-dashoffset:0;stroke-opacity:1"
       id="rect3808-9-4"
       width="38.219543"
       height="18.174328"
       x="142.58832"
       y="131.82744" />
    <path
       id="path4793-1"
       d="m 162.14896,91.090111 v 23.672749 h -3.61483 V 91.090111 l 1.80741,-3.63688 z"
       style="fill:#a6a6a6;fill-opacity:1;fill-rule:evenodd;stroke:none;stroke-width:0.26458332"
       inkscape:connector-curvature="0" />
    <path
       id="path4797-2"
       d="m 158.5269,133.12958 v -20.71916 h 3.61483 v 20.71916 l -1.80741,3.17401 z"
       style="fill:#a6a6a6;fill-opacity:1;fill-rule:evenodd;stroke:none;stroke-width:0.26458332"
       inkscape:connector-curvature="0" />
    <path
       inkscape:connector-curvature="0"
       style="fill:#666666;fill-opacity:1;fill-rule:evenodd;stroke:#f6f6f6;stroke-width:0.465;stroke-miterlimit:4;stroke-dasharray:none;stroke-opacity:0.79906509"
       d="m 162.17263,112.09826 -1.80764,-3.63698 -1.80713,3.63698 v 2.13889 0.01 1.36839 l 1.80713,3.63701 1.80764,-3.63699 v -1.36219 -0.01 z"
       id="hotspot2" />
    <g
       aria-label="Wholesale-
Portal"
       transform="matrix(0.26458333,0,0,0.26458333,-23.252449,-55.324792)"
       style="font-style:normal;font-variant:normal;font-weight:normal;font-stretch:normal;font-size:17.33333397px;line-height:1.25;font-family:sans-serif;-inkscape-font-specification:'sans-serif, Normal';font-variant-ligatures:normal;font-variant-caps:normal;font-variant-numeric:normal;font-feature-settings:normal;text-align:start;letter-spacing:0px;word-spacing:0px;writing-mode:lr-tb;text-anchor:start;fill:#000000;fill-opacity:1;stroke:none"
       id="flowRoot5068">
      <path
         d="m 181.01432,354.98495 -3.27539,12.60221 h -1.88737 l -2.64909,-10.46093 -2.58984,10.46093 h -1.84505 l -3.33464,-12.60221 h 1.7181 l 2.64909,10.47786 2.60677,-10.47786 h 1.70117 l 2.63216,10.57943 2.63217,-10.57943 z"
         style=""
         id="path5215" />
      <path
         d="m 191.25521,367.58716 h -1.59115 v -5.38281 q 0,-0.65169 -0.0762,-1.21875 -0.0762,-0.57552 -0.2793,-0.89713 -0.21158,-0.35547 -0.60937,-0.52474 -0.39779,-0.17774 -1.03255,-0.17774 -0.6517,0 -1.36263,0.32162 -0.71094,0.32161 -1.36263,0.82096 v 7.05859 h -1.59115 v -13.16927 h 1.59115 v 4.76498 q 0.74479,-0.61784 1.54036,-0.96485 0.79557,-0.347 1.63347,-0.347 1.5319,0 2.33593,0.92252 0.80404,0.92253 0.80404,2.65756 z"
         style=""
         id="path5217" />
      <path
         d="m 202.3763,362.86451 q 0,2.31054 -1.18489,3.64778 -1.1849,1.33724 -3.17383,1.33724 -2.00586,0 -3.19076,-1.33724 -1.17643,-1.33724 -1.17643,-3.64778 0,-2.31055 1.17643,-3.64779 1.1849,-1.3457 3.19076,-1.3457 1.98893,0 3.17383,1.3457 1.18489,1.33724 1.18489,3.64779 z m -1.64192,0 q 0,-1.83659 -0.71941,-2.72526 -0.7194,-0.89714 -1.99739,-0.89714 -1.29492,0 -2.01432,0.89714 -0.71094,0.88867 -0.71094,2.72526 0,1.77734 0.7194,2.69987 0.7194,0.91406 2.00586,0.91406 1.26953,0 1.98893,-0.9056 0.72787,-0.91406 0.72787,-2.70833 z"
         style=""
         id="path5219" />
      <path
         d="m 206.45573,367.58716 h -1.59115 v -13.16927 h 1.59115 z"
         style=""
         id="path5221" />
      <path
         d="m 217.53451,363.02531 h -6.9655 q 0,0.87175 0.26237,1.52344 0.26237,0.64323 0.7194,1.05794 0.44011,0.40625 1.04102,0.60938 0.60937,0.20312 1.33724,0.20312 0.96484,0 1.93815,-0.38085 0.98177,-0.38933 1.39648,-0.76172 h 0.0846 v 1.73502 q -0.80404,0.33854 -1.64193,0.56706 -0.83789,0.22852 -1.76041,0.22852 -2.35287,0 -3.67318,-1.26954 -1.32031,-1.27799 -1.32031,-3.62239 0,-2.31901 1.26106,-3.68164 1.26953,-1.36263 3.33464,-1.36263 1.91276,0 2.94531,1.11718 1.04102,1.11719 1.04102,3.17383 z m -1.54883,-1.21875 q -0.008,-1.2526 -0.63477,-1.93815 -0.61784,-0.68554 -1.88737,-0.68554 -1.27799,0 -2.03971,0.75325 -0.75326,0.75326 -0.85482,1.87044 z"
         style=""
         id="path5223" />
      <path
         d="m 226.70052,364.8619 q 0,1.29492 -1.07487,2.12435 -1.0664,0.82943 -2.91992,0.82943 -1.04948,0 -1.92969,-0.24544 -0.87174,-0.25391 -1.46419,-0.55013 v -1.78581 h 0.0846 q 0.75326,0.56706 1.67579,0.9056 0.92252,0.33008 1.76888,0.33008 1.04948,0 1.64192,-0.33855 0.59245,-0.33854 0.59245,-1.0664 0,-0.5586 -0.32161,-0.84636 -0.32162,-0.28776 -1.23568,-0.49088 -0.33854,-0.0762 -0.88867,-0.17774 -0.54167,-0.10156 -0.99024,-0.22005 -1.24414,-0.33008 -1.76888,-0.96484 -0.51627,-0.64323 -0.51627,-1.57422 0,-0.58399 0.23698,-1.10026 0.24544,-0.51628 0.73632,-0.92253 0.47396,-0.39778 1.20183,-0.6263 0.73633,-0.23698 1.64192,-0.23698 0.84636,0 1.70964,0.21159 0.87174,0.20313 1.44727,0.49935 v 1.70117 h -0.0846 q -0.60938,-0.44857 -1.48112,-0.75325 -0.87174,-0.31316 -1.70964,-0.31316 -0.87174,0 -1.47265,0.33855 -0.60091,0.33007 -0.60091,0.99023 0,0.58399 0.36393,0.88021 0.35547,0.29622 1.15104,0.48242 0.4401,0.10156 0.98177,0.20313 0.55013,0.10156 0.91406,0.18619 1.10873,0.25391 1.70964,0.87175 0.60091,0.6263 0.60091,1.65885 z"
         style=""
         id="path5225" />
      <path
         d="m 236.33203,367.58716 h -1.58268 V 366.58 q -0.21159,0.14388 -0.57552,0.40625 -0.35547,0.25391 -0.69401,0.40625 -0.39779,0.19466 -0.91406,0.32162 -0.51628,0.13541 -1.21029,0.13541 -1.278,0 -2.16667,-0.84635 -0.88867,-0.84636 -0.88867,-2.1582 0,-1.07487 0.45703,-1.73503 0.4655,-0.66862 1.32031,-1.04948 0.86329,-0.38086 2.07357,-0.51628 1.21029,-0.13541 2.59831,-0.20312 v -0.24544 q 0,-0.54167 -0.19466,-0.89714 -0.1862,-0.35547 -0.54167,-0.55859 -0.33854,-0.19466 -0.8125,-0.26237 -0.47396,-0.0677 -0.99023,-0.0677 -0.62631,0 -1.39649,0.16927 -0.77018,0.16081 -1.59114,0.47396 h -0.0846 v -1.61654 q 0.4655,-0.12695 1.3457,-0.27929 0.88021,-0.15235 1.73503,-0.15235 0.9987,0 1.73503,0.16927 0.74479,0.16081 1.28645,0.5586 0.53321,0.38932 0.8125,1.00716 0.2793,0.61784 0.2793,1.5319 z m -1.58268,-2.32747 v -2.63216 q -0.72787,0.0423 -1.7181,0.12695 -0.98177,0.0846 -1.55729,0.24544 -0.68555,0.19467 -1.10873,0.60938 -0.42317,0.40625 -0.42317,1.12565 0,0.8125 0.49088,1.22721 0.49089,0.40625 1.49805,0.40625 0.83789,0 1.5319,-0.32161 0.69401,-0.33008 1.28646,-0.78711 z"
         style=""
         id="path5227" />
      <path
         d="m 241.02084,367.58716 h -1.59115 v -13.16927 h 1.59115 z"
         style=""
         id="path5229" />
      <path
         d="m 252.09961,363.02531 h -6.96549 q 0,0.87175 0.26237,1.52344 0.26237,0.64323 0.7194,1.05794 0.4401,0.40625 1.04101,0.60938 0.60938,0.20312 1.33724,0.20312 0.96485,0 1.93815,-0.38085 0.98178,-0.38933 1.39649,-0.76172 h 0.0846 v 1.73502 q -0.80403,0.33854 -1.64192,0.56706 -0.83789,0.22852 -1.76042,0.22852 -2.35286,0 -3.67318,-1.26954 -1.32031,-1.27799 -1.32031,-3.62239 0,-2.31901 1.26107,-3.68164 1.26953,-1.36263 3.33463,-1.36263 1.91276,0 2.94532,1.11718 1.04101,1.11719 1.04101,3.17383 z m -1.54883,-1.21875 q -0.008,-1.2526 -0.63476,-1.93815 -0.61784,-0.68554 -1.88737,-0.68554 -1.278,0 -2.03972,0.75325 -0.75325,0.75326 -0.85481,1.87044 z"
         style=""
         id="path5231" />
      <path
         d="m 259.52214,362.83912 h -5.28125 v -1.5319 h 5.28125 z"
         style=""
         id="path5233" />
      <path
         d="m 174.5905,380.4602 q 0,0.83789 -0.29623,1.55729 -0.28776,0.71094 -0.8125,1.23568 -0.65169,0.65169 -1.54036,0.98177 -0.88868,0.32161 -2.24284,0.32161 h -1.67578 v 4.69727 h -1.67578 v -12.60221 h 3.41927 q 1.13411,0 1.92122,0.19466 0.78711,0.1862 1.39648,0.59245 0.71941,0.48242 1.10873,1.20182 0.39779,0.7194 0.39779,1.81966 z m -1.74349,0.0423 q 0,-0.6517 -0.22852,-1.13412 -0.22852,-0.48242 -0.69401,-0.78711 -0.40625,-0.26237 -0.93099,-0.37239 -0.51628,-0.11849 -1.31185,-0.11849 h -1.65885 v 5.03581 h 1.41341 q 1.01562,0 1.65039,-0.17774 0.63476,-0.1862 1.03255,-0.58398 0.39779,-0.40625 0.55859,-0.85482 0.16928,-0.44857 0.16928,-1.00716 z"
         style=""
         id="path5235" />
      <path
         d="m 184.73828,384.53116 q 0,2.31055 -1.18489,3.64779 -1.1849,1.33724 -3.17383,1.33724 -2.00586,0 -3.19076,-1.33724 -1.17643,-1.33724 -1.17643,-3.64779 0,-2.31054 1.17643,-3.64778 1.1849,-1.34571 3.19076,-1.34571 1.98893,0 3.17383,1.34571 1.18489,1.33724 1.18489,3.64778 z m -1.64193,0 q 0,-1.83658 -0.7194,-2.72526 -0.7194,-0.89713 -1.99739,-0.89713 -1.29492,0 -2.01433,0.89713 -0.71093,0.88868 -0.71093,2.72526 0,1.77735 0.7194,2.69987 0.7194,0.91407 2.00586,0.91407 1.26953,0 1.98893,-0.9056 0.72786,-0.91407 0.72786,-2.70834 z"
         style=""
         id="path5237" />
      <path
         d="m 193.10872,381.53507 h -0.0846 q -0.35547,-0.0846 -0.69401,-0.11849 -0.33008,-0.0423 -0.78711,-0.0423 -0.73633,0 -1.42188,0.33008 -0.68554,0.32162 -1.32031,0.83789 v 6.71159 h -1.59114 v -9.45378 h 1.59114 v 1.39649 q 0.94792,-0.76172 1.66732,-1.07487 0.72786,-0.32162 1.48112,-0.32162 0.41471,0 0.60091,0.0254 0.1862,0.0169 0.55859,0.0762 z"
         style=""
         id="path5239" />
      <path
         d="m 199.53255,389.16918 q -0.44856,0.11849 -0.98177,0.19467 -0.52474,0.0762 -0.93945,0.0762 -1.44727,0 -2.20052,-0.77865 -0.75326,-0.77864 -0.75326,-2.49674 v -5.02735 h -1.07487 v -1.33724 h 1.07487 v -2.71679 h 1.59115 v 2.71679 h 3.28385 v 1.33724 h -3.28385 v 4.30795 q 0,0.74479 0.0338,1.16796 0.0339,0.41472 0.23698,0.77865 0.1862,0.33854 0.50781,0.49935 0.33008,0.15234 0.9987,0.15234 0.38933,0 0.8125,-0.11002 0.42318,-0.11849 0.60938,-0.19466 h 0.0846 z"
         style=""
         id="path5241" />
      <path
         d="m 208.80859,389.25382 h -1.58268 v -1.00716 q -0.21159,0.14388 -0.57552,0.40625 -0.35547,0.2539 -0.69401,0.40625 -0.39779,0.19466 -0.91406,0.32161 -0.51628,0.13542 -1.21029,0.13542 -1.27799,0 -2.16667,-0.84635 -0.88867,-0.84636 -0.88867,-2.15821 0,-1.07487 0.45703,-1.73502 0.4655,-0.66862 1.32032,-1.04948 0.86328,-0.38086 2.07356,-0.51628 1.21029,-0.13542 2.59831,-0.20312 v -0.24545 q 0,-0.54166 -0.19466,-0.89713 -0.1862,-0.35547 -0.54167,-0.5586 -0.33854,-0.19466 -0.8125,-0.26237 -0.47395,-0.0677 -0.99023,-0.0677 -0.6263,0 -1.39649,0.16927 -0.77018,0.1608 -1.59114,0.47396 h -0.0846 v -1.61654 q 0.4655,-0.12695 1.34571,-0.2793 0.8802,-0.15234 1.73502,-0.15234 0.9987,0 1.73503,0.16927 0.74479,0.16081 1.28646,0.55859 0.5332,0.38933 0.8125,1.00716 0.27929,0.61784 0.27929,1.53191 z m -1.58268,-2.32747 v -2.63217 q -0.72786,0.0423 -1.7181,0.12696 -0.98177,0.0846 -1.55729,0.24544 -0.68555,0.19466 -1.10872,0.60938 -0.42318,0.40625 -0.42318,1.12565 0,0.8125 0.49089,1.22721 0.49088,0.40625 1.49804,0.40625 0.83789,0 1.5319,-0.32161 0.69401,-0.33008 1.28646,-0.78711 z"
         style=""
         id="path5243" />
      <path
         d="m 213.4974,389.25382 h -1.59115 v -13.16927 h 1.59115 z"
         style=""
         id="path5245" />
    </g>
    <flowRoot
       xml:space="preserve"
       id="flowRoot5068-2"
       style="font-style:normal;font-variant:normal;font-weight:normal;font-stretch:normal;font-size:17.33333397px;line-height:1.25;font-family:sans-serif;-inkscape-font-specification:'sans-serif, Normal';font-variant-ligatures:normal;font-variant-caps:normal;font-variant-numeric:normal;font-feature-settings:normal;text-align:start;letter-spacing:0px;word-spacing:0px;writing-mode:lr-tb;text-anchor:start;fill:#000000;fill-opacity:1;stroke:none"
       transform="matrix(0.26458333,0,0,0.26458333,-75.728692,-41.424314)"><flowRegion
         id="flowRegion5070-8"
         style="font-style:normal;font-variant:normal;font-weight:normal;font-stretch:normal;font-size:17.33333397px;font-family:sans-serif;-inkscape-font-specification:'sans-serif, Normal';font-variant-ligatures:normal;font-variant-caps:normal;font-variant-numeric:normal;font-feature-settings:normal;text-align:start;writing-mode:lr-tb;text-anchor:start"><rect
           id="rect5072-1"
           width="158.59393"
           height="47.477158"
           x="164.65486"
           y="351.77325"
           style="font-style:normal;font-variant:normal;font-weight:normal;font-stretch:normal;font-size:17.33333397px;font-family:sans-serif;-inkscape-font-specification:'sans-serif, Normal';font-variant-ligatures:normal;font-variant-caps:normal;font-variant-numeric:normal;font-feature-settings:normal;text-align:start;writing-mode:lr-tb;text-anchor:start" /></flowRegion><flowPara
         id="flowPara5074-8">Wholesale-</flowPara><flowPara
         id="flowPara5076-0">Portal</flowPara></flowRoot>    <g
       aria-label="BLS-TKP"
       transform="matrix(0.26458333,0,0,0.26458333,71.269549,-52.916903)"
       style="font-style:normal;font-variant:normal;font-weight:normal;font-stretch:normal;font-size:17.33333397px;line-height:1.25;font-family:sans-serif;-inkscape-font-specification:'sans-serif, Normal';font-variant-ligatures:normal;font-variant-caps:normal;font-variant-numeric:normal;font-feature-settings:normal;text-align:start;letter-spacing:0px;word-spacing:0px;writing-mode:lr-tb;text-anchor:start;fill:#000000;fill-opacity:1;stroke:none"
       id="flowRoot5068-2-9">
      <path
         d="m 175.85156,363.71086 q 0,0.93945 -0.35547,1.65886 -0.35546,0.7194 -0.95638,1.18489 -0.71093,0.5586 -1.56575,0.79557 -0.84636,0.23698 -2.1582,0.23698 h -4.46875 v -12.60221 h 3.73242 q 1.37955,0 2.0651,0.10156 0.68555,0.10156 1.31185,0.42318 0.69401,0.36393 1.00716,0.93945 0.31315,0.56706 0.31315,1.36263 0,0.89714 -0.45703,1.5319 -0.45703,0.62631 -1.21875,1.00717 v 0.0677 q 1.278,0.26237 2.01432,1.12565 0.73633,0.85482 0.73633,2.16667 z m -2.81836,-5.67904 q 0,-0.45703 -0.15234,-0.77018 -0.15234,-0.31315 -0.49089,-0.50781 -0.39778,-0.22852 -0.96484,-0.2793 -0.56706,-0.0592 -1.40495,-0.0592 h -1.99739 v 3.63932 h 2.16666 q 0.78711,0 1.25261,-0.0762 0.46549,-0.0846 0.86328,-0.33854 0.39779,-0.25391 0.55859,-0.6517 0.16927,-0.40625 0.16927,-0.95638 z m 1.07487,5.74675 q 0,-0.76172 -0.22851,-1.21029 -0.22852,-0.44856 -0.82943,-0.76172 -0.40625,-0.21158 -0.99023,-0.27083 -0.57552,-0.0677 -1.40495,-0.0677 h -2.63216 v 4.6888 h 2.21744 q 1.10027,0 1.80274,-0.11002 0.70247,-0.11849 1.15104,-0.42318 0.47396,-0.33008 0.69401,-0.75325 0.22005,-0.42318 0.22005,-1.0918 z"
         style=""
         id="path5174" />
      <path
         d="m 186.20247,367.58716 h -7.97265 v -12.60221 h 1.67578 v 11.11263 h 6.29687 z"
         style=""
         id="path5176" />
      <path
         d="m 197.03581,363.99016 q 0,0.73633 -0.34701,1.45573 -0.33854,0.7194 -0.95638,1.21875 -0.67708,0.54166 -1.58268,0.84635 -0.89714,0.30469 -2.16667,0.30469 -1.36263,0 -2.45442,-0.25391 -1.08334,-0.2539 -2.20899,-0.75325 v -2.09896 h 0.11849 q 0.95638,0.79557 2.20899,1.22721 1.2526,0.43164 2.35286,0.43164 1.55729,0 2.42057,-0.58398 0.87175,-0.58399 0.87175,-1.55729 0,-0.83789 -0.41472,-1.23568 -0.40625,-0.39779 -1.24414,-0.61784 -0.63476,-0.16927 -1.37955,-0.2793 -0.73633,-0.11002 -1.56576,-0.27929 -1.67578,-0.35547 -2.48828,-1.21029 -0.80404,-0.86328 -0.80404,-2.24284 0,-1.58268 1.33724,-2.58984 1.33724,-1.01563 3.39388,-1.01563 1.32878,0 2.4375,0.25391 1.10873,0.25391 1.96355,0.6263 v 1.98047 h -0.11849 q -0.71941,-0.60937 -1.89584,-1.00716 -1.16797,-0.40625 -2.39518,-0.40625 -1.3457,0 -2.16667,0.55859 -0.8125,0.5586 -0.8125,1.43881 0,0.7871 0.40625,1.23567 0.40625,0.44857 1.43034,0.68555 0.54167,0.11849 1.54037,0.28776 0.99869,0.16927 1.6927,0.34701 1.40495,0.37239 2.11589,1.12565 0.71094,0.75325 0.71094,2.10742 z"
         style=""
         id="path5178" />
      <path
         d="m 204.61068,362.83912 h -5.28125 v -1.5319 h 5.28125 z"
         style=""
         id="path5180" />
      <path
         d="m 216.60352,356.47453 h -4.50261 v 11.11263 h -1.67578 v -11.11263 h -4.5026 v -1.48958 h 10.68099 z"
         style=""
         id="path5182" />
      <path
         d="m 228.44401,367.58716 h -2.17513 l -4.98502,-5.61132 -1.25261,1.33723 v 4.27409 h -1.67578 v -12.60221 h 1.67578 v 6.57617 l 6.11914,-6.57617 h 2.03125 l -5.62825,5.92448 z"
         style=""
         id="path5184" />
      <path
         d="m 238.57487,358.79354 q 0,0.83789 -0.29622,1.5573 -0.28776,0.71093 -0.8125,1.23567 -0.6517,0.6517 -1.54037,0.98177 -0.88867,0.32162 -2.24284,0.32162 h -1.67578 v 4.69726 h -1.67578 v -12.60221 h 3.41927 q 1.13412,0 1.92123,0.19466 0.7871,0.1862 1.39648,0.59245 0.7194,0.48242 1.10872,1.20182 0.39779,0.7194 0.39779,1.81966 z m -1.74349,0.0423 q 0,-0.65169 -0.22852,-1.13411 -0.22851,-0.48243 -0.69401,-0.78711 -0.40625,-0.26237 -0.93099,-0.3724 -0.51627,-0.11849 -1.31184,-0.11849 h -1.65886 v 5.03581 h 1.41341 q 1.01563,0 1.65039,-0.17774 0.63477,-0.18619 1.03256,-0.58398 0.39778,-0.40625 0.55859,-0.85482 0.16927,-0.44857 0.16927,-1.00716 z"
         style=""
         id="path5186" />
    </g>
    <g
       aria-label="SKS-ES"
       transform="matrix(0.26458333,0,0,0.26458333,108.15274,-13.895553)"
       style="font-style:normal;font-variant:normal;font-weight:normal;font-stretch:normal;font-size:17.33333397px;line-height:1.25;font-family:sans-serif;-inkscape-font-specification:'sans-serif, Normal';font-variant-ligatures:normal;font-variant-caps:normal;font-variant-numeric:normal;font-feature-settings:normal;text-align:start;letter-spacing:0px;word-spacing:0px;writing-mode:lr-tb;text-anchor:start;fill:#000000;fill-opacity:1;stroke:none"
       id="flowRoot5068-2-8">
      <path
         d="m 175.50456,363.99016 q 0,0.73633 -0.34701,1.45573 -0.33854,0.7194 -0.95638,1.21875 -0.67708,0.54166 -1.58268,0.84635 -0.89714,0.30469 -2.16667,0.30469 -1.36263,0 -2.45442,-0.25391 -1.08334,-0.2539 -2.20899,-0.75325 v -2.09896 h 0.11849 q 0.95638,0.79557 2.20899,1.22721 1.2526,0.43164 2.35286,0.43164 1.55729,0 2.42057,-0.58398 0.87175,-0.58399 0.87175,-1.55729 0,-0.83789 -0.41472,-1.23568 -0.40625,-0.39779 -1.24414,-0.61784 -0.63476,-0.16927 -1.37955,-0.2793 -0.73633,-0.11002 -1.56576,-0.27929 -1.67578,-0.35547 -2.48828,-1.21029 -0.80404,-0.86328 -0.80404,-2.24284 0,-1.58268 1.33724,-2.58984 1.33724,-1.01563 3.39388,-1.01563 1.32878,0 2.4375,0.25391 1.10873,0.25391 1.96355,0.6263 v 1.98047 h -0.11849 q -0.71941,-0.60937 -1.89584,-1.00716 -1.16797,-0.40625 -2.39518,-0.40625 -1.3457,0 -2.16667,0.55859 -0.8125,0.5586 -0.8125,1.43881 0,0.7871 0.40625,1.23567 0.40625,0.44857 1.43034,0.68555 0.54167,0.11849 1.54037,0.28776 0.99869,0.16927 1.6927,0.34701 1.40495,0.37239 2.11589,1.12565 0.71094,0.75325 0.71094,2.10742 z"
         style=""
         id="path5189" />
      <path
         d="m 188.32682,367.58716 h -2.17513 l -4.98502,-5.61132 -1.25261,1.33723 v 4.27409 h -1.67578 v -12.60221 h 1.67578 v 6.57617 l 6.11914,-6.57617 h 2.03125 l -5.62825,5.92448 z"
         style=""
         id="path5191" />
      <path
         d="m 199.37175,363.99016 q 0,0.73633 -0.34701,1.45573 -0.33854,0.7194 -0.95638,1.21875 -0.67708,0.54166 -1.58268,0.84635 -0.89714,0.30469 -2.16667,0.30469 -1.36263,0 -2.45443,-0.25391 -1.08333,-0.2539 -2.20898,-0.75325 v -2.09896 h 0.11849 q 0.95638,0.79557 2.20898,1.22721 1.25261,0.43164 2.35287,0.43164 1.55729,0 2.42057,-0.58398 0.87175,-0.58399 0.87175,-1.55729 0,-0.83789 -0.41472,-1.23568 -0.40625,-0.39779 -1.24414,-0.61784 -0.63476,-0.16927 -1.37956,-0.2793 -0.73632,-0.11002 -1.56575,-0.27929 -1.67578,-0.35547 -2.48828,-1.21029 -0.80404,-0.86328 -0.80404,-2.24284 0,-1.58268 1.33724,-2.58984 1.33724,-1.01563 3.39388,-1.01563 1.32878,0 2.4375,0.25391 1.10872,0.25391 1.96354,0.6263 v 1.98047 h -0.11849 q -0.7194,-0.60937 -1.89583,-1.00716 -1.16797,-0.40625 -2.39518,-0.40625 -1.34571,0 -2.16667,0.55859 -0.8125,0.5586 -0.8125,1.43881 0,0.7871 0.40625,1.23567 0.40625,0.44857 1.43034,0.68555 0.54167,0.11849 1.54036,0.28776 0.9987,0.16927 1.69271,0.34701 1.40495,0.37239 2.11589,1.12565 0.71094,0.75325 0.71094,2.10742 z"
         style=""
         id="path5193" />
      <path
         d="m 206.94662,362.83912 h -5.28125 v -1.5319 h 5.28125 z"
         style=""
         id="path5195" />
      <path
         d="m 218.25391,367.58716 h -8.30274 v -12.60221 h 8.30274 v 1.48958 h -6.62696 v 3.45313 h 6.62696 v 1.48958 h -6.62696 v 4.68034 h 6.62696 z"
         style=""
         id="path5197" />
      <path
         d="m 230.07748,363.99016 q 0,0.73633 -0.34701,1.45573 -0.33854,0.7194 -0.95638,1.21875 -0.67708,0.54166 -1.58268,0.84635 -0.89714,0.30469 -2.16667,0.30469 -1.36263,0 -2.45443,-0.25391 -1.08333,-0.2539 -2.20898,-0.75325 v -2.09896 h 0.11849 q 0.95638,0.79557 2.20898,1.22721 1.25261,0.43164 2.35287,0.43164 1.55729,0 2.42057,-0.58398 0.87175,-0.58399 0.87175,-1.55729 0,-0.83789 -0.41472,-1.23568 -0.40625,-0.39779 -1.24414,-0.61784 -0.63476,-0.16927 -1.37956,-0.2793 -0.73632,-0.11002 -1.56575,-0.27929 -1.67578,-0.35547 -2.48828,-1.21029 -0.80404,-0.86328 -0.80404,-2.24284 0,-1.58268 1.33724,-2.58984 1.33724,-1.01563 3.39388,-1.01563 1.32878,0 2.4375,0.25391 1.10873,0.25391 1.96354,0.6263 v 1.98047 h -0.11849 q -0.7194,-0.60937 -1.89583,-1.00716 -1.16797,-0.40625 -2.39518,-0.40625 -1.34571,0 -2.16667,0.55859 -0.8125,0.5586 -0.8125,1.43881 0,0.7871 0.40625,1.23567 0.40625,0.44857 1.43034,0.68555 0.54167,0.11849 1.54036,0.28776 0.9987,0.16927 1.69271,0.34701 1.40495,0.37239 2.11589,1.12565 0.71094,0.75325 0.71094,2.10742 z"
         style=""
         id="path5199" />
    </g>
    <g
       aria-label="OpDiNG"
       transform="matrix(0.26458333,0,0,0.26458333,107.35094,45.171013)"
       style="font-style:normal;font-variant:normal;font-weight:normal;font-stretch:normal;font-size:17.33333397px;line-height:1.25;font-family:sans-serif;-inkscape-font-specification:'sans-serif, Normal';font-variant-ligatures:normal;font-variant-caps:normal;font-variant-numeric:normal;font-feature-settings:normal;text-align:start;letter-spacing:0px;word-spacing:0px;writing-mode:lr-tb;text-anchor:start;fill:#000000;fill-opacity:1;stroke:none"
       id="flowRoot5068-2-4">
      <path
         d="m 175.74154,356.43222 q 0.77018,0.84635 1.17643,2.07356 0.41471,1.22722 0.41471,2.78451 0,1.55729 -0.42317,2.79297 -0.41472,1.22721 -1.16797,2.04817 -0.77865,0.85482 -1.84506,1.28646 -1.05794,0.43164 -2.42057,0.43164 -1.32877,0 -2.42057,-0.4401 -1.08333,-0.4401 -1.84505,-1.278 -0.76172,-0.83789 -1.17644,-2.05664 -0.40625,-1.21875 -0.40625,-2.7845 0,-1.54037 0.40625,-2.75912 0.40625,-1.22721 1.1849,-2.09895 0.74479,-0.82943 1.84505,-1.26954 1.10873,-0.4401 2.41211,-0.4401 1.35417,0 2.42904,0.44857 1.08333,0.4401 1.83659,1.26107 z m -0.15235,4.85807 q 0,-2.45443 -1.10026,-3.7832 -1.10026,-1.33724 -3.00455,-1.33724 -1.92123,0 -3.02149,1.33724 -1.0918,1.32877 -1.0918,3.7832 0,2.47982 1.11719,3.80013 1.11719,1.31185 2.9961,1.31185 1.8789,0 2.98763,-1.31185 1.11718,-1.32031 1.11718,-3.80013 z"
         style=""
         id="path5202" />
      <path
         d="m 188.18294,362.74602 q 0,1.15104 -0.33007,2.10742 -0.33008,0.94792 -0.93099,1.60807 -0.5586,0.6263 -1.32032,0.97331 -0.75325,0.33854 -1.59961,0.33854 -0.73632,0 -1.33724,-0.16081 -0.59244,-0.1608 -1.21028,-0.49934 v 3.96093 h -1.59115 v -12.94075 h 1.59115 v 0.99023 q 0.63476,-0.5332 1.42187,-0.88867 0.79558,-0.36393 1.69271,-0.36393 1.70964,0 2.65755,1.29492 0.95638,1.28646 0.95638,3.58008 z m -1.64192,0.0423 q 0,-1.70964 -0.58399,-2.55599 -0.58398,-0.84636 -1.79427,-0.84636 -0.68555,0 -1.37956,0.29623 -0.69401,0.29622 -1.32877,0.77864 v 5.35742 q 0.67708,0.30469 1.1595,0.41472 0.49089,0.11002 1.10873,0.11002 1.32877,0 2.07356,-0.89713 0.7448,-0.89714 0.7448,-2.65755 z"
         style=""
         id="path5204" />
      <path
         d="m 201.43685,361.29875 q 0,1.7181 -0.75326,3.11459 -0.74479,1.39648 -1.98893,2.16666 -0.86328,0.53321 -1.92969,0.77018 -1.05794,0.23698 -2.79296,0.23698 h -3.1823 v -12.60221 h 3.14844 q 1.84505,0 2.92839,0.27083 1.09179,0.26237 1.84505,0.72787 1.28646,0.80403 2.00586,2.14127 0.7194,1.33724 0.7194,3.17383 z m -1.75195,-0.0254 q 0,-1.48112 -0.51628,-2.49674 -0.51628,-1.01563 -1.54036,-1.59961 -0.7448,-0.42318 -1.58269,-0.58399 -0.83789,-0.16927 -2.00586,-0.16927 h -1.57421 v 9.72461 h 1.57421 q 1.21029,0 2.10743,-0.17773 0.9056,-0.17774 1.65885,-0.66016 0.93945,-0.60091 1.40495,-1.58268 0.47396,-0.98177 0.47396,-2.45443 z"
         style=""
         id="path5206" />
      <path
         d="m 205.74479,356.5507 h -1.79427 v -1.65039 h 1.79427 z m -0.10156,11.03646 h -1.59115 v -9.45377 h 1.59115 z"
         style=""
         id="path5208" />
      <path
         d="m 218.55013,367.58716 h -2.07357 l -5.97526,-11.27343 v 11.27343 h -1.56575 v -12.60221 h 2.59831 l 5.45052,10.29167 v -10.29167 h 1.56575 z"
         style=""
         id="path5210" />
      <path
         d="m 232.41341,366.65617 q -1.03255,0.47396 -2.25976,0.82943 -1.21875,0.34701 -2.36133,0.34701 -1.47266,0 -2.69987,-0.40625 -1.22722,-0.40625 -2.0905,-1.21875 -0.87174,-0.82097 -1.3457,-2.04818 -0.47396,-1.23568 -0.47396,-2.88607 0,-3.02148 1.76042,-4.76497 1.76888,-1.75196 4.84961,-1.75196 1.07487,0 2.19206,0.26237 1.12565,0.25391 2.42057,0.87175 v 1.98893 h -0.15235 q -0.26237,-0.20312 -0.76171,-0.5332 -0.49935,-0.33008 -0.98178,-0.55013 -0.58398,-0.26237 -1.32877,-0.43164 -0.73633,-0.17774 -1.67578,-0.17774 -2.11589,0 -3.35157,1.36263 -1.22721,1.35417 -1.22721,3.67318 0,2.44596 1.28646,3.80859 1.28646,1.35417 3.50391,1.35417 0.8125,0 1.61653,-0.16081 0.8125,-0.1608 1.42188,-0.41471 v -3.08919 h -3.37696 v -1.47266 h 5.03581 z"
         style=""
         id="path5212" />
    </g>
    <flowRoot
       xml:space="preserve"
       id="flowRoot5160"
       style="fill:black;fill-opacity:1;stroke:none;font-family:Arial;font-style:normal;font-weight:normal;font-size:17.33333333px;line-height:1.25;letter-spacing:0px;word-spacing:0px;-inkscape-font-specification:'Arial, Normal';font-stretch:normal;font-variant:normal;text-anchor:start;text-align:start;writing-mode:lr;font-variant-ligatures:normal;font-variant-caps:normal;font-variant-numeric:normal;font-feature-settings:normal"><flowRegion
         id="flowRegion5162"><rect
           id="rect5164"
           width="68.690376"
           height="22.223356"
           x="269.71072"
           y="416.42303" /></flowRegion><flowPara
         id="flowPara5166"></flowPara></flowRoot>  </g>
</svg>
